<svg width="27" height="24" viewBox="0 0 27 24" fill="none" xmlns="http://www.w3.org/2000/svg">
<path d="M6.25326 2.66702C6.2529 3.37427 5.97161 4.0524 5.47126 4.55225C4.97092 5.0521 4.2925 5.33271 3.58526 5.33236C2.87801 5.332 2.19987 5.05071 1.70003 4.55037C1.20018 4.05002 0.919569 3.3716 0.919922 2.66436C0.920276 1.95711 1.20157 1.27898 1.70191 0.779129C2.20226 0.279282 2.88068 -0.00132985 3.58792 -0.000976229C4.29517 -0.000622607 4.9733 0.280668 5.47315 0.781015C5.973 1.28136 6.25361 1.95978 6.25326 2.66702ZM6.33326 7.30702H0.999922V24.0004H6.33326V7.30702ZM14.7599 7.30702H9.45326V24.0004H14.7066V15.2404C14.7066 10.3604 21.0666 9.90702 21.0666 15.2404V24.0004H26.3333V13.427C26.3333 5.20036 16.9199 5.50702 14.7066 9.54702L14.7599 7.30702Z" fill="white"/>
</svg>
